<svg width="27" height="22" viewBox="0 0 27 22" fill="none" xmlns="http://www.w3.org/2000/svg"><path fill-rule="evenodd" clip-rule="evenodd" d="M12.19 0c6.379 0 11.567 4.257 11.567 9.492 0 1.854-.652 3.586-1.776 5.05l3.54 2.905c1.002.822 1.002 2.159 0 2.983-1.005.822-2.633.822-3.636 0l-3.539-2.905c-1.785.923-3.894 1.458-6.155 1.458-6.378 0-11.566-4.257-11.566-9.49C.625 4.256 5.813 0 12.191 0Zm0 16.874c4.961 0 8.997-3.312 8.997-7.382 0-4.072-4.036-7.383-8.996-7.383-4.96 0-8.995 3.311-8.995 7.383 0 4.07 4.034 7.382 8.995 7.382Z" fill="#E63A28"/></svg>