<svg width="19" height="15" viewBox="0 0 19 15" fill="none" xmlns="http://www.w3.org/2000/svg"><path d="M15.459 14h-2.953a.406.406 0 0 1-.422-.422v-1.406c0-.211.176-.422.422-.422h2.953c.598 0 1.125-.492 1.125-1.125v-6.75c0-.598-.527-1.125-1.125-1.125h-2.953a.406.406 0 0 1-.422-.422V.922c0-.211.176-.422.422-.422h2.953a3.376 3.376 0 0 1 3.375 3.375v6.75A3.376 3.376 0 0 1 15.459 14Zm-1.652-7.066c.316.351.316.878 0 1.195L7.9 14.035c-.527.527-1.441.176-1.441-.598v-3.374H1.678c-.492 0-.844-.352-.844-.844V5.844c0-.457.352-.844.844-.844h4.781V1.625c0-.738.914-1.125 1.441-.598l5.907 5.907Z" fill="#E63A28"/></svg>