<svg width="54" height="56" viewBox="0 0 54 56" fill="none" xmlns="http://www.w3.org/2000/svg"><path fill-rule="evenodd" clip-rule="evenodd" d="M52.361 20.151c-.716 3.232-1.424 6.463-2.142 9.695-1.452-1.891-2.772-3.888-4.164-5.823.614-2.524 1.167-5.065 1.729-7.605.422-1.954.651-4.047.013-5.981-1.137-3.207-4.775-5.176-7.991-4.372-2.788.612-5.058 2.477-7.481 3.902-6.313 3.76-13.06 6.644-19.65 9.825.555-.981 1.492-1.628 2.267-2.41 4.796-4.517 10.11-8.399 15.329-12.377C33.41 2.633 37.05.573 41.048.543 44.93.346 48.76 2.33 51.128 5.455c1.653 2.225 2.386 5.075 2.291 7.857.043 2.327-.57 4.587-1.058 6.84ZM5.778 45.175c1.116 3.33 4.948 5.317 8.231 4.395 2.62-.603 4.748-2.375 7.034-3.715C27.428 41.983 34.31 39.1 41 35.858c-3.538 3.972-7.785 7.19-11.936 10.446-3.881 2.835-7.483 6.25-12.01 7.984-3.291 1.184-7.118 1.27-10.251-.44C3.473 52.232.912 48.94.368 45.166c-.429-2.39-.201-4.846.328-7.199.888-4.053 1.796-8.097 2.675-12.15a185.76 185.76 0 0 1 4.164 5.872c-.624 2.506-1.15 5.037-1.717 7.56-.435 1.933-.712 4.011-.04 5.926Z" fill="#2B5AE1"/><path fill-rule="evenodd" clip-rule="evenodd" d="M52.102 47.908c-1.531 3.347-4.544 6.029-8.142 6.717-4.09.956-8.167-.495-12.143-1.349-2.363-.554-4.733-1.086-7.094-1.654 1.779-1.516 3.75-2.776 5.569-4.24 2.738.607 5.455 1.313 8.2 1.9 2.172.429 4.618.465 6.513-.86 2.2-1.59 3.476-4.531 2.909-7.256-.32-1.81-1.176-3.45-2.127-4.988-4.535-7.262-7.785-15.245-11.252-23.066 3.832 3.7 7.027 8.014 10.199 12.3 2.529 3.681 5.563 7.078 7.329 11.242 1.49 3.531 1.782 7.757.04 11.254ZM14.744 5.964c-2.158-.41-4.598-.476-6.468.878C6.418 8.185 5.193 10.5 5.3 12.85c-.018 2.566 1.328 4.849 2.638 6.94 4.134 6.678 7.064 14.008 10.336 21.14.185.438.302.905.414 1.372-3.865-4.248-7.5-8.712-10.815-13.421-2.57-3.647-5.576-7.107-7.067-11.404-1.172-3.385-1.133-7.303.561-10.497 1.334-2.697 3.622-4.93 6.44-5.914 2.836-1.04 5.949-.87 8.85-.208 3.965.924 7.935 1.837 11.898 2.771-1.8 1.51-3.741 2.834-5.605 4.256-2.732-.657-5.463-1.326-8.207-1.921Z" fill="#E63A28"/></svg>