<svg width="260" height="128" viewBox="0 0 260 128" fill="none" xmlns="http://www.w3.org/2000/svg">
<g clip-path="url(#clip0_4_350)">
<path d="M259.406 129.333C259.406 129.333 223.819 78.1525 216.983 67.206C211.237 58.1392 203.609 50.9521 197.863 41.7747C193.702 35.2509 189.542 28.8379 186.273 21.7613C182.508 13.5791 179.932 9.70909 168.044 5.5074C163.586 3.9594 154.075 0.863417 149.419 3.18541C141.592 7.05539 134.657 12.0311 129.506 19.8816C128.318 21.6508 127.524 23.7516 127.623 25.9631C127.723 27.7321 128.218 29.7224 128.911 31.2704C129.209 32.0444 129.704 32.8184 130.001 33.7029C130.992 37.1307 129.902 41.4429 134.162 41.1112C135.649 41.0007 135.45 39.5632 136.936 39.3421C139.314 39.0104 141.196 38.4576 141.988 37.0201C144.366 32.2656 144.366 32.2656 149.419 30.8281C150.409 30.4964 154.867 29.2801 155.362 28.1744C155.362 28.1744 164.973 35.1404 166.359 35.1404C166.459 40.0056 168.737 45.8657 168.737 45.8657C168.737 45.8657 162.198 67.4272 155.264 66.6532C148.329 65.8792 134.955 67.8695 131.091 75.9411C127.326 84.0128 130.398 85.2291 136.936 83.6811C143.475 82.1331 162.793 82.1331 165.864 84.7868C168.936 87.4405 193.109 95.0699 195.189 94.9593C209.356 132.996 210.049 138.524 210.049 138.524L259.406 129.333Z" fill="#FFC500"/>
<path d="M170.323 20.2135C165.468 18.9973 160.02 16.7858 155.066 16.4541C151.401 16.2329 148.231 18.3338 145.06 20.4346C140.702 23.4201 137.63 26.2949 135.748 31.8234C135.352 32.9291 135.054 34.1454 135.054 35.3617C135.054 36.5779 135.549 37.7943 136.342 38.5683C137.63 39.6739 139.512 39.2317 140.8 38.1259C142.088 37.0203 142.782 35.3617 143.277 33.7031C143.475 33.1503 143.673 32.5974 144.07 32.3763C144.367 32.1551 144.665 32.1551 144.961 32.0446C148.428 31.6023 151.301 29.5014 154.472 28.3958C154.671 28.2851 154.967 28.2851 155.166 28.2851C155.462 28.2851 155.76 28.6169 156.057 28.8381C159.029 31.7129 162.595 33.7031 166.36 34.8089C169.134 53.4954 177.456 71.2972 191.524 81.9121" stroke="#3D3935" stroke-width="2" stroke-miterlimit="10" stroke-linecap="round" stroke-linejoin="round"/>
<path d="M172.304 14.3532C166.558 12.9158 160.317 9.04583 154.373 8.16125C147.933 7.16612 135.054 18.4444 134.064 20.7664C132.281 24.7469 130.596 29.2803 130.2 33.7032C130.001 35.5828 129.903 38.126 131.091 39.674C132.676 41.8855 135.351 41.4431 136.739 39.3423" stroke="#3D3935" stroke-width="2" stroke-miterlimit="10" stroke-linecap="round" stroke-linejoin="round"/>
<path d="M197.864 42.2168C193.999 35.6932 190.334 29.0589 186.768 22.4247C184.292 17.8912 182.409 11.9204 177.456 9.48784C169.926 5.839 165.27 4.62271 159.424 2.85358C151.201 0.310447 146.248 4.62271 139.909 9.04555C134.459 12.9155 130.893 17.1172 127.723 23.4197" stroke="#3D3935" stroke-width="2" stroke-miterlimit="10" stroke-linecap="round" stroke-linejoin="round"/>
<path d="M197.864 94.738C196.972 94.8487 180.725 92.7478 165.766 84.5655C158.435 82.5752 150.708 81.5802 143.178 82.4647C140.8 82.7964 138.324 83.1282 135.847 83.5704C132.281 84.2338 129.408 84.1232 129.903 79.037C130.2 75.7199 132.181 72.9556 134.361 71.0759C141.097 64.8839 150.608 67.0954 158.632 65.9896" stroke="#3D3935" stroke-width="2" stroke-miterlimit="10" stroke-linecap="round" stroke-linejoin="round"/>
<path d="M0.59375 128C0.59375 128 35.5876 78.1525 42.4234 67.206C48.1694 58.1392 55.7977 50.9521 61.5437 41.7747C65.7046 35.2509 69.8655 28.8379 73.1348 21.7613C76.8994 13.5791 79.4751 9.70909 91.3634 5.5074C95.8215 3.9594 105.332 0.863416 109.988 3.18541C115.536 5.83911 125.839 10.9254 127.029 21.4296C127.82 25.6313 128.514 30.1647 128.415 34.4769C128.415 35.6933 128.613 38.4576 127.622 39.3421C126.83 40.1161 125.146 39.4527 124.155 39.2316C121.481 38.6787 119.201 37.6836 117.419 35.4721C114.645 32.0444 104.837 29.0591 104.341 27.9533C104.341 27.9533 93.6421 34.9193 92.255 34.9193C92.156 39.7844 90.8681 45.7552 90.8681 45.7552C90.8681 45.7552 97.4067 67.3165 104.341 66.5425C111.276 65.7685 124.651 67.7588 128.514 75.8305C132.278 83.9023 129.208 85.1185 122.669 83.5705C116.131 82.0225 96.8123 82.0225 93.7411 84.6763C90.67 87.3299 66.4971 94.9593 64.4167 94.8488C50.2498 132.885 49.5564 138.413 49.5564 138.413L0.59375 128Z" fill="#46A0DE"/>
<path d="M62.2368 79.1479C76.3046 73.8404 90.5705 54.4905 92.2547 34.8088C92.1557 35.3617 103.053 28.5063 103.549 28.3957C107.016 27.8429 111.573 32.3763 115.437 32.9292C115.833 32.9292 117.814 36.3568 118.31 36.7992C119.598 38.126 121.084 39.1211 122.867 39.3423C123.362 39.3423 123.957 39.3423 124.452 39.0105C128.415 36.2463 122.57 27.7323 120.787 25.2997C119.301 23.3095 116.626 21.5404 114.545 20.2135C111.375 18.0021 108.205 15.9012 104.539 16.2329C99.5858 16.5647 94.137 18.7761 89.2826 19.9924" stroke="#3D3935" stroke-width="2" stroke-miterlimit="10" stroke-linecap="round" stroke-linejoin="round"/>
<path d="M87.1035 14.3532C92.8495 12.9158 99.0908 9.04583 105.035 8.16125C111.474 7.16612 124.354 18.4444 125.344 20.7664C126.533 23.42 133.368 40.1163 125.939 40.1163C125.939 40.1163 125.344 40.1163 124.354 39.3423" stroke="#3D3935" stroke-width="2" stroke-miterlimit="10" stroke-linecap="round" stroke-linejoin="round"/>
<path d="M61.5435 42.2168C65.4071 35.6932 69.0728 29.0589 72.6392 22.4247C75.1159 17.8912 76.9983 11.9204 81.9517 9.48784C89.4809 5.839 94.1371 4.62271 99.9823 2.85358C108.205 0.310447 113.158 4.62271 119.499 9.04555C125.245 13.1367 127.028 17.1172 127.425 25.41" stroke="#3D3935" stroke-width="2" stroke-miterlimit="10" stroke-linecap="round" stroke-linejoin="round"/>
<path d="M61.5435 94.7378C62.4351 94.8484 78.6824 92.7476 93.6418 84.5653C100.973 82.5751 108.7 81.5799 116.23 82.4644C118.607 82.7961 121.084 83.1279 123.56 83.5701C125.74 84.0124 127.325 84.6759 129.01 82.5751C132.278 78.4839 127.92 73.6188 125.047 70.9651C118.31 64.7731 108.799 66.9845 100.775 65.8788" stroke="#3D3935" stroke-width="2" stroke-miterlimit="10" stroke-linecap="round" stroke-linejoin="round"/>
</g>
<defs>
<clipPath id="clip0_4_350">
<rect width="260" height="128" fill="white"/>
</clipPath>
</defs>
</svg>
