<svg xmlns="http://www.w3.org/2000/svg" xmlns:xlink="http://www.w3.org/1999/xlink" style="width: 0; height: 0; visibility: hidden; position: absolute;" aria-hidden="true">
  <symbol  viewBox='0 0 27 22' id='icon'>
    <path fill-rule="evenodd" clip-rule="evenodd" d="M12.19 0c6.379 0 11.567 4.257 11.567 9.492 0 1.854-.652 3.586-1.776 5.05l3.54 2.905c1.002.822 1.002 2.159 0 2.983-1.005.822-2.633.822-3.636 0l-3.539-2.905c-1.785.923-3.894 1.458-6.155 1.458-6.378 0-11.566-4.257-11.566-9.49C.625 4.256 5.813 0 12.191 0Zm0 16.874c4.961 0 8.997-3.312 8.997-7.382 0-4.072-4.036-7.383-8.996-7.383-4.96 0-8.995 3.311-8.995 7.383 0 4.07 4.034 7.382 8.995 7.382Z" fill="#E63A28"></path>
  </symbol><symbol  viewBox='0 0 19 15' id='icon2'>
    <path d="M15.459 14h-2.953a.406.406 0 0 1-.422-.422v-1.406c0-.211.176-.422.422-.422h2.953c.598 0 1.125-.492 1.125-1.125v-6.75c0-.598-.527-1.125-1.125-1.125h-2.953a.406.406 0 0 1-.422-.422V.922c0-.211.176-.422.422-.422h2.953a3.376 3.376 0 0 1 3.375 3.375v6.75A3.376 3.376 0 0 1 15.459 14Zm-1.652-7.066c.316.351.316.878 0 1.195L7.9 14.035c-.527.527-1.441.176-1.441-.598v-3.374H1.678c-.492 0-.844-.352-.844-.844V5.844c0-.457.352-.844.844-.844h4.781V1.625c0-.738.914-1.125 1.441-.598l5.907 5.907Z" fill="#E63A28"></path>
  </symbol><symbol  viewBox='0 0 16 11' id='icon3'>
    <path d="M15.027 3.5a.577.577 0 0 0 0-.813l-1.482-1.473a.566.566 0 0 0-.804 0L8 5.955l-4.741-4.74a.566.566 0 0 0-.804 0L.973 2.686a.577.577 0 0 0 0 .813l6.625 6.616c.223.223.58.223.804 0L15.027 3.5Z" fill="#222"></path>
  </symbol><symbol  viewBox='0 0 54 56' id='logo'>
    <path fill-rule="evenodd" clip-rule="evenodd" d="M52.361 20.151c-.716 3.232-1.424 6.463-2.142 9.695-1.452-1.891-2.772-3.888-4.164-5.823.614-2.524 1.167-5.065 1.729-7.605.422-1.954.651-4.047.013-5.981-1.137-3.207-4.775-5.176-7.991-4.372-2.788.612-5.058 2.477-7.481 3.902-6.313 3.76-13.06 6.644-19.65 9.825.555-.981 1.492-1.628 2.267-2.41 4.796-4.517 10.11-8.399 15.329-12.377C33.41 2.633 37.05.573 41.048.543 44.93.346 48.76 2.33 51.128 5.455c1.653 2.225 2.386 5.075 2.291 7.857.043 2.327-.57 4.587-1.058 6.84ZM5.778 45.175c1.116 3.33 4.948 5.317 8.231 4.395 2.62-.603 4.748-2.375 7.034-3.715C27.428 41.983 34.31 39.1 41 35.858c-3.538 3.972-7.785 7.19-11.936 10.446-3.881 2.835-7.483 6.25-12.01 7.984-3.291 1.184-7.118 1.27-10.251-.44C3.473 52.232.912 48.94.368 45.166c-.429-2.39-.201-4.846.328-7.199.888-4.053 1.796-8.097 2.675-12.15a185.76 185.76 0 0 1 4.164 5.872c-.624 2.506-1.15 5.037-1.717 7.56-.435 1.933-.712 4.011-.04 5.926Z" fill="#2B5AE1"></path><path fill-rule="evenodd" clip-rule="evenodd" d="M52.102 47.908c-1.531 3.347-4.544 6.029-8.142 6.717-4.09.956-8.167-.495-12.143-1.349-2.363-.554-4.733-1.086-7.094-1.654 1.779-1.516 3.75-2.776 5.569-4.24 2.738.607 5.455 1.313 8.2 1.9 2.172.429 4.618.465 6.513-.86 2.2-1.59 3.476-4.531 2.909-7.256-.32-1.81-1.176-3.45-2.127-4.988-4.535-7.262-7.785-15.245-11.252-23.066 3.832 3.7 7.027 8.014 10.199 12.3 2.529 3.681 5.563 7.078 7.329 11.242 1.49 3.531 1.782 7.757.04 11.254ZM14.744 5.964c-2.158-.41-4.598-.476-6.468.878C6.418 8.185 5.193 10.5 5.3 12.85c-.018 2.566 1.328 4.849 2.638 6.94 4.134 6.678 7.064 14.008 10.336 21.14.185.438.302.905.414 1.372-3.865-4.248-7.5-8.712-10.815-13.421-2.57-3.647-5.576-7.107-7.067-11.404-1.172-3.385-1.133-7.303.561-10.497 1.334-2.697 3.622-4.93 6.44-5.914 2.836-1.04 5.949-.87 8.85-.208 3.965.924 7.935 1.837 11.898 2.771-1.8 1.51-3.741 2.834-5.605 4.256-2.732-.657-5.463-1.326-8.207-1.921Z" fill="#E63A28"></path>
  </symbol><symbol  viewBox='0 0 28 22' id='nav'>
    <path d="M0 0h28v6H0V0Zm0 8h28v6H0V8Zm0 8h28v6H0v-6Z" fill="#000"></path>
  </symbol><symbol  viewBox='0 0 260 128' fill="none" id='slogan'>
    <g clip-path="url(#a)"><path d="M259.406 129.333s-35.587-51.18-42.423-62.127c-5.746-9.067-13.374-16.254-19.12-25.431-4.161-6.524-8.321-12.937-11.59-20.014-3.765-8.182-6.341-12.052-18.229-16.254-4.458-1.548-13.969-4.644-18.625-2.322-7.827 3.87-14.762 8.846-19.913 16.697-1.188 1.769-1.982 3.87-1.883 6.081.1 1.77.595 3.76 1.288 5.307.298.774.793 1.548 1.09 2.433.991 3.428-.099 7.74 4.161 7.408 1.487-.11 1.288-1.548 2.774-1.769 2.378-.332 4.26-.884 5.052-2.322 2.378-4.754 2.378-4.754 7.431-6.192.99-.332 5.448-1.548 5.943-2.654 0 0 9.611 6.966 10.997 6.966.1 4.866 2.378 10.726 2.378 10.726s-6.539 21.561-13.473 20.787c-6.935-.774-20.309 1.216-24.173 9.288-3.765 8.072-.693 9.288 5.845 7.74 6.539-1.548 25.857-1.548 28.928 1.106 3.072 2.653 27.245 10.283 29.325 10.172 14.167 38.037 14.86 43.565 14.86 43.565l49.357-9.191Z" fill="#FFC500"></path><path d="M170.323 20.213c-4.855-1.216-10.303-3.427-15.257-3.759-3.665-.221-6.835 1.88-10.006 3.98-4.358 2.986-7.43 5.86-9.312 11.39-.396 1.105-.694 2.321-.694 3.538 0 1.216.495 2.432 1.288 3.206 1.288 1.106 3.17.664 4.458-.442 1.288-1.106 1.982-2.764 2.477-4.423.198-.553.396-1.106.793-1.327.297-.22.595-.22.891-.331 3.467-.443 6.34-2.544 9.511-3.65.199-.11.495-.11.694-.11.296 0 .594.332.891.553a24.872 24.872 0 0 0 10.303 5.97c2.774 18.687 11.096 36.49 25.164 47.104" stroke="#3D3935" stroke-width="2" stroke-miterlimit="10" stroke-linecap="round" stroke-linejoin="round"></path><path d="M172.304 14.353c-5.746-1.437-11.987-5.307-17.931-6.192-6.44-.995-19.319 10.283-20.309 12.605-1.783 3.98-3.468 8.514-3.864 12.937-.199 1.88-.297 4.423.891 5.971 1.585 2.212 4.26 1.77 5.648-.332" stroke="#3D3935" stroke-width="2" stroke-miterlimit="10" stroke-linecap="round" stroke-linejoin="round"></path><path d="M197.864 42.217c-3.865-6.524-7.53-13.158-11.096-19.792-2.476-4.534-4.359-10.505-9.312-12.937-7.53-3.649-12.186-4.865-18.032-6.634-8.223-2.544-13.176 1.769-19.515 6.192-5.45 3.87-9.016 8.071-12.186 14.374m70.141 71.318c-.892.11-17.139-1.99-32.098-10.172-7.331-1.99-15.058-2.986-22.588-2.101-2.378.331-4.854.663-7.331 1.105-3.566.664-6.439.553-5.944-4.533.297-3.317 2.278-6.081 4.458-7.961 6.736-6.192 16.247-3.98 24.271-5.086" stroke="#3D3935" stroke-width="2" stroke-miterlimit="10" stroke-linecap="round" stroke-linejoin="round"></path><path d="M.594 128s34.994-49.847 41.83-60.794c5.745-9.067 13.374-16.254 19.12-25.431 4.16-6.524 8.322-12.937 11.59-20.014C76.9 13.58 79.476 9.71 91.365 5.507 95.82 3.96 105.331.863 109.987 3.185c5.548 2.654 15.851 7.74 17.041 18.245.791 4.201 1.485 8.735 1.386 13.047 0 1.216.198 3.98-.793 4.865-.792.774-2.476.11-3.467-.11-2.674-.553-4.954-1.548-6.736-3.76-2.774-3.428-12.582-6.413-13.078-7.519 0 0-10.699 6.966-12.086 6.966-.099 4.865-1.387 10.836-1.387 10.836s6.539 21.562 13.473 20.788c6.935-.775 20.31 1.216 24.173 9.287 3.764 8.072.694 9.288-5.845 7.74-6.538-1.547-25.857-1.547-28.928 1.106C90.67 87.33 66.497 94.96 64.417 94.85c-14.167 38.036-14.86 43.564-14.86 43.564L.593 128Z" fill="#46A0DE"></path><path d="M62.237 79.148C76.305 73.84 90.57 54.49 92.255 34.808c-.1.554 10.798-6.302 11.294-6.412 3.467-.553 8.024 3.98 11.888 4.533.396 0 2.377 3.428 2.873 3.87 1.288 1.327 2.774 2.322 4.557 2.543.495 0 1.09 0 1.585-.331 3.963-2.765-1.882-11.279-3.665-13.711-1.486-1.99-4.161-3.76-6.242-5.087-3.17-2.21-6.34-4.312-10.006-3.98-4.953.332-10.402 2.543-15.256 3.76" stroke="#3D3935" stroke-width="2" stroke-miterlimit="10" stroke-linecap="round" stroke-linejoin="round"></path><path d="M87.103 14.353c5.747-1.437 11.988-5.307 17.932-6.192 6.439-.995 19.319 10.283 20.309 12.605 1.189 2.654 8.024 19.35.595 19.35 0 0-.595 0-1.585-.774" stroke="#3D3935" stroke-width="2" stroke-miterlimit="10" stroke-linecap="round" stroke-linejoin="round"></path><path d="M61.544 42.217c3.863-6.524 7.529-13.158 11.095-19.792C75.116 17.89 77 11.92 81.952 9.488c7.529-3.649 12.185-4.865 18.03-6.634C108.205.31 113.158 4.623 119.5 9.046c5.746 4.09 7.529 8.071 7.926 16.364M61.544 94.738c.891.11 17.138-1.99 32.098-10.173 7.331-1.99 15.058-2.985 22.588-2.1 2.377.331 4.854.663 7.33 1.105 2.18.442 3.765 1.106 5.45-.995 3.268-4.091-1.09-8.956-3.963-11.61-6.737-6.192-16.248-3.98-24.272-5.086" stroke="#3D3935" stroke-width="2" stroke-miterlimit="10" stroke-linecap="round" stroke-linejoin="round"></path></g><defs><clippath id="a"><path fill="#fff" d="M0 0h260v128H0z"></path></clippath></defs>
  </symbol></svg>